# xmcd CD Database Entry
#
# Track frame offsets:
# 150
# 11186
# 21327
# 36223
# 48941
# 63133
# 76641
# 90521
# 105743
# 114722
# 129701
# 139570
# 152872
# 159311
# 170540
# 177421
# 187779
# 199578
# 206768
# 214396
# 222714
# 229737
# 240894
# 248349
#
# Disc length: 3426 seconds
#
# Revision: 1
# Processed by: cddbd v1.4PL0 Copyright (c) Steve Scherf et al.
# Submitted via: tcd 2.0b
#
DISCID=420d6018
DTITLE=Randall Hylton - Railroad Songs
DYEAR=1900
DGENRE=
TTITLE0=Carried My Girl from Town
TTITLE1=Midnight Special
TTITLE2=Railroad Bill
TTITLE3=Southern Moon
TTITLE4=Wabash Cannonball
TTITLE5=John Henry
TTITLE6=Wreck of Old '97
TTITLE7=Working on the Railroad
TTITLE8=Waiting for a Train
TTITLE9=Streamline Cannonball
TTITLE10=Casey Jones
TTITLE11=Life's Railway to Heaven
TTITLE12=Chinese Breakdown
TTITLE13=Beer Barrel Polka
TTITLE14=Dixie - Yankee Doodle
TTITLE15=Soldier's Joy
TTITLE16=Lorena
TTITLE17=Mississippi Sawyer
TTITLE18=Red Wing
TTITLE19=Over the Waves Waltz
TTITLE20=Bill Cheatham
TTITLE21=Arkansas Traveler
TTITLE22=Flop-eared Mule
TTITLE23=12th Street Rag
EXTD=
EXTT0=
EXTT1=
EXTT2=
EXTT3=
EXTT4=
EXTT5=
EXTT6=
EXTT7=
EXTT8=
EXTT9=
EXTT10=
EXTT11=
EXTT12=
EXTT13=
EXTT14=
EXTT15=
EXTT16=
EXTT17=
EXTT18=
EXTT19=
EXTT20=
EXTT21=
EXTT22=
EXTT23=
PLAYORDER=
